<svg viewBox="0 0 38 38" fill="#FFFFFF" xmlns="http://www.w3.org/2000/svg">
  <path d="M34.7881 37.2849L21.5664 24.0751C20.5744 24.9172 19.4144 25.5741 18.0864 26.0458C16.7584 26.5175 15.339 26.7533 13.8283 26.7533C10.1672 26.7533 7.06801 25.4834 4.53085 22.9436C1.99368 20.4037 0.725098 17.3392 0.725098 13.7501C0.725098 10.1609 1.99503 7.09644 4.5349 4.55658C7.07473 2.01674 10.1475 0.746826 13.7533 0.746826C17.3591 0.746826 20.4236 2.01674 22.9468 4.55658C25.47 7.09644 26.7316 10.1634 26.7316 13.7576C26.7316 15.2018 26.5042 16.5847 26.0495 17.9061C25.5948 19.2274 24.9128 20.4675 24.0033 21.6262L37.2751 34.7979L34.7881 37.2849ZM13.7826 23.3468C16.4403 23.3468 18.6951 22.4094 20.5471 20.5346C22.3991 18.6598 23.3251 16.3983 23.3251 13.7501C23.3251 11.1019 22.3985 8.84038 20.5453 6.96558C18.6922 5.09074 16.4379 4.15333 13.7826 4.15333C11.0995 4.15333 8.82018 5.09074 6.94475 6.96558C5.06931 8.84038 4.1316 11.1019 4.1316 13.7501C4.1316 16.3983 5.06873 18.6598 6.943 20.5346C8.81723 22.4094 11.0971 23.3468 13.7826 23.3468Z" fill-opacity="0.7"/>
</svg>